<?xml version="1.0" encoding="utf-8"?>
<!-- Generator: Adobe Illustrator 18.0.0, SVG Export Plug-In . SVG Version: 6.00 Build 0)  -->
<!DOCTYPE svg PUBLIC "-//W3C//DTD SVG 1.1//EN" "http://www.w3.org/Graphics/SVG/1.1/DTD/svg11.dtd">
<svg version="1.1" id="Layer_2" xmlns="http://www.w3.org/2000/svg" xmlns:xlink="http://www.w3.org/1999/xlink" x="0px" y="0px"
	 width="217px" height="127.2px" viewBox="0 0 217 127.2" style="enable-background:new 0 0 217 127.2;" xml:space="preserve">
<style type="text/css">
	.st0{fill:#87898B;}
	.st1{fill:#97999B;}
	.st2{fill:#231F20;}
	.st3{fill:#434345;}
	.st4{fill:url(#SVGID_1_);}
	.st5{fill:url(#SVGID_2_);}
	.st6{fill:url(#SVGID_3_);}
	.st7{fill:url(#SVGID_4_);}
	.st8{fill:url(#SVGID_5_);}
	.st9{fill:#939598;}
</style>
<polygon class="st0" points="121.8,78.2 128,64.4 131.3,66.2 123.7,83.1 "/>
<polygon class="st1" points="136.4,112 142.8,79.8 139.4,79.2 133.7,109.1 "/>
<path class="st1" d="M175.4,73.5c-0.2,2-1.2,15-1.2,15l-3.6-0.3c0,0,0.5-14.4,0.6-16.4C171.3,69.4,175.9,66.7,175.4,73.5z"/>
<polygon class="st2" points="71.8,46.4 77.8,75.9 81.3,75.1 76,45.8 "/>
<polygon class="st1" points="86.9,48.1 92.4,67.6 95.8,65.8 91.1,48.1 "/>
<polygon class="st2" points="49.9,111.8 46.7,93.7 50,92.8 53.3,113.5 "/>
<path class="st3" d="M66,118.2c-1-6.9-3.2-27-3.5-32.3l3.5-0.4c0.6,9.7,1.9,23.6,2.8,32.2L66,118.2z"/>
<polygon class="st2" points="162.1,54 158.6,82.2 155.1,81.8 158.3,51.6 "/>
<g>
	<linearGradient id="SVGID_1_" gradientUnits="userSpaceOnUse" x1="0.23" y1="94.3325" x2="200.7612" y2="94.3325">
		<stop  offset="0" style="stop-color:#91278F"/>
		<stop  offset="0.3388" style="stop-color:#91278F"/>
		<stop  offset="0.3594" style="stop-color:#009344"/>
		<stop  offset="0.4954" style="stop-color:#009344"/>
		<stop  offset="0.5217" style="stop-color:#2A3990"/>
		<stop  offset="0.6885" style="stop-color:#2A3990"/>
		<stop  offset="0.7125" style="stop-color:#FFCA40"/>
		<stop  offset="1" style="stop-color:#FFCA40"/>
	</linearGradient>
	<path class="st4" d="M86,100.2c-9.7,15-16.8,16.9-23.3,16c-8.1-1.1-12.5-6.1-21.9-15.1v10c0,0,0.1,0,0.1,0.1
		c4.7,3.5,16,11.2,26.8,9.3c11.6-2,17.6-12.6,25.9-25.2c5.2-7.9,11.1-16.2,17.2-23.4c-0.7-1.3-1.5-2.6-2.4-4
		C99.5,78.4,92,90.9,86,100.2z"/>
	<linearGradient id="SVGID_2_" gradientUnits="userSpaceOnUse" x1="0.23" y1="66.7649" x2="200.7612" y2="66.7649">
		<stop  offset="0" style="stop-color:#91278F"/>
		<stop  offset="0.3388" style="stop-color:#91278F"/>
		<stop  offset="0.3594" style="stop-color:#009344"/>
		<stop  offset="0.4954" style="stop-color:#009344"/>
		<stop  offset="0.5217" style="stop-color:#2A3990"/>
		<stop  offset="0.6885" style="stop-color:#2A3990"/>
		<stop  offset="0.7125" style="stop-color:#FFCA40"/>
		<stop  offset="1" style="stop-color:#FFCA40"/>
	</linearGradient>
	<path class="st5" d="M121.7,60.8c9.9-8.4,21.2-12.6,30.2-10c7.8,2.2,13.2,6.5,18,16.5c2.8,5.8,4.9,12.9,6.8,20.1V66.2
		c-0.6-1.1-1.3-2.2-2.1-3.2c-4.1-6-13.3-15.1-23.5-16.4c-9.4-1.2-19.2-0.2-32.4,10.8c-1.7,1.4-3.4,3-5,4.6c1,1.2,1.9,2.3,2.8,3.5
		C118.3,63.8,120,62.2,121.7,60.8z"/>
	<linearGradient id="SVGID_3_" gradientUnits="userSpaceOnUse" x1="21.1675" y1="91.5161" x2="216.4487" y2="91.5161">
		<stop  offset="0" style="stop-color:#009244"/>
		<stop  offset="0.2467" style="stop-color:#009244"/>
		<stop  offset="0.2785" style="stop-color:#90278E"/>
		<stop  offset="0.4264" style="stop-color:#90278E"/>
		<stop  offset="0.4529" style="stop-color:#FFC940"/>
		<stop  offset="0.6057" style="stop-color:#FFC940"/>
		<stop  offset="0.6316" style="stop-color:#2A398F"/>
	</linearGradient>
	<path class="st6" d="M176.8,102.1c-12.3,7.2-19.2,10.1-27.1,11.3c-8,1.2-15.3-2.2-17.1-9c-2.1-8.2-8.1-26-12.2-33
		c-1.2-2-2.5-3.9-3.9-5.8c-1.9,2-3.9,4.1-5.8,6.3c2.4,4.2,4,8.1,5.4,11c3.5,7.2,10.5,27.2,17.4,30.9c6.9,3.8,14.9,5.8,27.1,0.6
		c6.6-2.8,11.7-5.4,16.1-7.8V102.1z"/>
	<linearGradient id="SVGID_4_" gradientUnits="userSpaceOnUse" x1="21.1675" y1="65.0177" x2="216.4487" y2="65.0177">
		<stop  offset="0" style="stop-color:#009244"/>
		<stop  offset="0.2467" style="stop-color:#009244"/>
		<stop  offset="0.2785" style="stop-color:#90278E"/>
		<stop  offset="0.4264" style="stop-color:#90278E"/>
		<stop  offset="0.4529" style="stop-color:#FFC940"/>
		<stop  offset="0.6057" style="stop-color:#FFC940"/>
		<stop  offset="0.6316" style="stop-color:#2A398F"/>
	</linearGradient>
	<path class="st7" d="M103.4,52.5c-7.4-5.1-20.9-12.4-35.8-8.8S44.7,62.3,43,66.9c-0.7,1.9-1.4,4-2.2,6.4v14c1-3.5,1.9-6.7,2.8-9.4
		c4.5-14.1,10.3-22.2,15.6-25.5s18-9.6,33.4,0c7.3,4.5,12.2,10.1,15.8,15.6c1.7-2.1,3.5-4,5.4-5.9C110.8,58.5,107.3,55.3,103.4,52.5
		z"/>
	<linearGradient id="SVGID_5_" gradientUnits="userSpaceOnUse" x1="21.1675" y1="66.927" x2="216.4487" y2="66.927">
		<stop  offset="0" style="stop-color:#009244"/>
		<stop  offset="0.2467" style="stop-color:#009244"/>
		<stop  offset="0.2785" style="stop-color:#90278E"/>
		<stop  offset="0.4264" style="stop-color:#90278E"/>
		<stop  offset="0.4529" style="stop-color:#FFC940"/>
		<stop  offset="0.6057" style="stop-color:#FFC940"/>
		<stop  offset="0.6316" style="stop-color:#2A398F"/>
	</linearGradient>
	<path class="st8" d="M116.6,65.5c-0.9-1.2-1.8-2.4-2.8-3.5c-1.9,1.9-3.7,3.8-5.4,5.9c0.9,1.3,1.7,2.7,2.4,4
		C112.7,69.6,114.7,67.5,116.6,65.5z"/>
</g>
<path class="st0" d="M83.6,103.3c-0.8-3.7-5.3-25.8-5.3-25.8l3.3-0.9c0,0,4.4,20.9,5.1,25.2C87.3,105.8,84.5,107.4,83.6,103.3z"/>
<path class="st3" d="M97.7,84.5c-0.9-2.5-4.5-14.8-4.5-14.8l3.3-1.7c0,0,2.7,8.8,4,13.6C101.7,86.4,98.7,87.4,97.7,84.5z"/>
<path class="st0" d="M46.2,92c-1.1-6.1-2.9-19.1-3.3-22c-0.3-3,3.3-3.1,3.6-0.6c0.2,1.6,2.6,18.6,3.1,21.7L46.2,92z"/>
<path class="st1" d="M62.4,84c-1.4-12.4-2-27.6-2.1-34.8c-0.1-3.8,3.9-4.5,4,0.3c0.1,4.3,0.7,22.1,1.5,34.1L62.4,84z"/>
<path class="st3" d="M148.7,49.7c-0.6,3.8-5.4,28.3-5.4,28.3l-3.6-0.7c0,0,4.6-25.4,5.1-28.3C145.7,45,149.1,47.1,148.7,49.7z"/>
<path class="st0" d="M151,114.4c0.2-1.7,4.1-30.9,4.1-30.9l3.1,0.4c0,0-3.5,26.6-4,30.4C153.7,117.4,150.8,116.5,151,114.4z"/>
<path class="st3" d="M169.7,107.2c0-2.6,0.8-17.4,0.8-17.4l3.4,0.3c0,0-0.7,14.5-1,16.9S169.7,109.8,169.7,107.2z"/>
<path class="st2" d="M128.7,62.6c0,0,4.5-9.8,5.2-11.3c2.2-4.7,5-1.2,3.8,1.2c-1.5,3.3-5.7,11.9-5.7,11.9L128.7,62.6z"/>
<g>
	<g>
		<path class="st9" d="M175.3,37.7v85.1H41.8V37.7H175.3 M176.8,36.2H40.3v88.1h136.5V36.2L176.8,36.2z"/>
	</g>
</g>
<g>
	<path d="M125.7,12.5c-1.4-0.8-2.9-1.2-4.5-1.2c-1.5,0-3,0.4-4.4,1.2c-1.4,0.8-2.5,1.9-3.2,3.2c-0.8,1.4-1.2,2.9-1.2,4.5
		c0,2.5,0.9,4.6,2.6,6.3c1.7,1.7,3.8,2.6,6.2,2.6c1.6,0,3.1-0.4,4.5-1.2c1.4-0.8,2.4-1.9,3.2-3.2s1.2-2.9,1.2-4.5
		c0-1.7-0.4-3.1-1.2-4.5S127.1,13.3,125.7,12.5z M146.4,12.4c-1.3-0.4-3.5-0.6-6.4-0.6h-1.5v16.8h2.4c2.9,0,4.9-0.2,6-0.5
		c1.6-0.5,2.8-1.4,3.7-2.8c0.9-1.3,1.3-2.9,1.3-4.9c0-2-0.5-3.7-1.5-5.1S148.1,12.9,146.4,12.4z M40.8,0.7v35.5h135.4V0.7H40.8z
		 M62.6,11.8h-9.9v6.5h9.8v2h-9.8v8.2h9.8v2H50.7V9.8h11.9V11.8z M82.6,30.6h-0.5L68.4,14.8v15.8h-2.2V9.8h0.5l13.9,16v-16h2.1V30.6
		z M91.5,26.6c1.7,1.7,3.9,2.5,6.6,2.5c2.9,0,5.4-1.1,7.3-3.4l1.6,1.2c-1,1.3-2.3,2.3-3.9,3.1c-1.6,0.7-3.3,1.1-5.2,1.1
		c-3.6,0-6.5-1.2-8.6-3.6c-1.8-2-2.6-4.5-2.6-7.4c0-3,1.1-5.6,3.2-7.7c2.1-2.1,4.8-3.1,8-3.1c1.9,0,3.7,0.4,5.3,1.2
		c1.6,0.8,2.9,1.8,3.9,3.2l-1.6,1.3c-0.9-1.2-2-2.1-3.3-2.7c-1.3-0.6-2.7-0.9-4.2-0.9c-1.7,0-3.2,0.4-4.6,1.2
		c-1.4,0.8-2.5,1.9-3.3,3.2c-0.8,1.3-1.2,2.9-1.2,4.5C88.9,22.8,89.8,24.9,91.5,26.6z M129.1,27.9c-2.1,2.1-4.7,3.2-7.8,3.2
		c-3.1,0-5.7-1.1-7.8-3.2c-2.1-2.1-3.2-4.7-3.2-7.7c0-2,0.5-3.9,1.5-5.6c1-1.7,2.3-3,4-4c1.7-1,3.5-1.5,5.4-1.5
		c3.2,0,5.8,1.1,7.9,3.2c2.1,2.1,3.2,4.7,3.2,7.8C132.3,23.2,131.2,25.8,129.1,27.9z M152.6,26c-0.9,1.6-2.1,2.8-3.5,3.5
		s-3.5,1.1-6.1,1.1h-6.6V9.8h4.3c3.1,0,5.4,0.2,6.8,0.8c2,0.7,3.6,1.9,4.7,3.7s1.7,3.8,1.7,6.2C154,22.5,153.5,24.4,152.6,26z
		 M170,11.8h-9.9v6.5h9.8v2h-9.8v8.2h9.8v2H158V9.8H170V11.8z"/>
</g>
<g>
	<path d="M3.1,76.9c-2.3,1.7-2.9,6.3-2.9,6.3C2,83.9,4,84.9,6.1,86c0.1,0.3,0.2,0.6,0.5,0.9c2,2.9,13.3,17.3,13.3,17.3l2.6-2.1
		c-1.7-2.6-7.4-9.7-7.1-10.1s6.9,4.4,10,6.9c2.8,2.2,5.1,4.1,7.1,5.7c-1.3,5.3-2.1,8.8-2.2,8.9c-0.3,0.1-6.6-9.6-6.6-9.6l-2.5,2.1
		c0,0,7.9,10.7,8,11.3s-1.3,4.7-1.6,5.7l3.2,2.2c0.7-1.7,2.6-9.2,4.9-18.1c1.6,1.3,3.1,2.4,4.7,3.6v-10.1c-0.8-0.8-1.6-1.5-2.5-2.3
		c0.8-3.1,1.6-6.2,2.5-9.1V74.9c-2,6.4-3.9,13.8-5.6,20.5C20.9,82.9,12.9,79.6,3.1,76.9z M201.7,86c-3.9,2.7-9.1,6.3-14.6,9.8
		c-0.5-2.3-1-4.4-1.4-6.2c-1.2-5.2-3.7-14.5-8.9-23.3v21.1c0.7,2.5,1.3,5,1.9,7.4c0.5,1.9,1,3.7,1.5,5.4c-0.4,0.3-0.8,0.5-1.3,0.8
		c-0.7,0.4-1.4,0.8-2.1,1.3v4.5c1.6-0.9,3.1-1.8,4.5-2.7c4.6,14.8,8.2,18.8,12.6,22.7l2.5-3.5c-1.2-1.6-2.9-3.5-3-4.2
		c0-0.4,4.7-8.7,7.3-14.9c-0.7-0.3-1.9-0.9-3.2-1.4c-1.7,2.7-5.4,11.2-6.1,11.7c-0.4,0.3-2-7.2-3.6-14.7c0.9-0.6,1.7-1.2,2.6-1.7
		c3.9-2.6,9.4-6.5,14.1-10c-1.7,3.7-4.8,10.4-6,13.2l3,1.3c1.2-2.3,5.8-13.2,7.8-18c3-2.2,5-3.7,5-3.7l2.1-5.1
		C211.8,78.6,204.5,84,201.7,86z"/>
</g>
</svg>
